<svg xmlns="http://www.w3.org/2000/svg" width="64" height="64" viewBox="0 0 64 64" shape-rendering="crispEdges">
  <rect x="7" y="10" width="50" height="47" fill="#080711"/>
  <rect x="12" y="15" width="40" height="37" fill="#74452f"/>
  <rect x="12" y="15" width="40" height="7" fill="#c98a4c"/>
  <rect x="12" y="45" width="40" height="7" fill="#c98a4c"/>
  <rect x="12" y="22" width="8" height="23" fill="#c98a4c"/>
  <rect x="45" y="22" width="7" height="23" fill="#c98a4c"/>
  <rect x="20" y="22" width="7" height="8" fill="#c98a4c"/>
  <rect x="37" y="22" width="8" height="8" fill="#c98a4c"/>
  <rect x="27" y="30" width="10" height="7" fill="#c98a4c"/>
  <rect x="20" y="37" width="7" height="8" fill="#c98a4c"/>
  <rect x="37" y="37" width="8" height="8" fill="#c98a4c"/>
  <rect x="11" y="16" width="42" height="2" fill="#e0ae61"/>
  <rect x="11" y="46" width="42" height="2" fill="#4a2b2a"/>
  <rect x="17" y="23" width="2" height="19" fill="#4a2b2a"/>
  <rect x="45" y="23" width="2" height="19" fill="#4a2b2a"/>
  <rect x="22" y="25" width="4" height="3" fill="#e0ae61"/>
  <rect x="27" y="29" width="4" height="3" fill="#e0ae61"/>
  <rect x="32" y="33" width="4" height="3" fill="#e0ae61"/>
  <rect x="37" y="37" width="4" height="3" fill="#e0ae61"/>
  <rect x="15" y="21" width="3" height="3" fill="#080711"/>
  <rect x="46" y="21" width="3" height="3" fill="#080711"/>
  <rect x="15" y="42" width="3" height="3" fill="#080711"/>
  <rect x="46" y="42" width="3" height="3" fill="#080711"/>
</svg>
